<svg width="640" height="640" viewBox="0 0 640 640" fill="none" xmlns="http://www.w3.org/2000/svg">
<rect width="640" height="640" fill="none"/>
<path d="M320.394 86.4744L324.778 82.99L320.392 77.4722L316.009 82.9916L320.394 86.4744ZM193.19 246.638L196.014 251.474L196.921 250.944L197.575 250.121L193.19 246.638ZM447.693 246.639L443.309 250.123L443.966 250.949L444.878 251.479L447.693 246.639ZM452.677 250.121L456.16 245.736L447.389 238.77L443.906 243.155L452.677 250.121ZM442.168 482.682L447.026 485.467L452.597 475.751L447.739 472.965L442.168 482.682ZM198.172 243.153L194.688 238.769L185.92 245.738L189.404 250.122L198.172 243.153ZM193.042 473.999L188.188 476.792L193.773 486.5L198.627 483.708L193.042 473.999ZM316.009 82.9916L188.805 243.156L197.575 250.121L324.779 89.9572L316.009 82.9916ZM69.5946 325.291L196.014 251.474L190.366 241.802L63.9471 315.619L69.5946 325.291ZM316.01 89.9588L443.309 250.123L452.077 243.154L324.778 82.99L316.01 89.9588ZM577.414 315.614L450.509 241.798L444.878 251.479L571.783 325.295L577.414 315.614ZM325.473 410.285L452.677 250.121L443.906 243.155L316.702 403.319L325.473 410.285ZM318.302 411.66L442.168 482.682L447.739 472.965L323.873 401.944L318.302 411.66ZM325.471 403.318L198.172 243.153L189.404 250.122L316.704 410.286L325.471 403.318ZM318.295 401.948L193.042 473.999L198.627 483.708L323.88 411.656L318.295 401.948Z" fill="#C6C6C6"/>
<path d="M320.394 236.221L324.738 239.755L328.85 234.702L323.236 231.395L320.394 236.221ZM201.475 159.68L196.65 156.838L190.966 166.489L195.791 169.331L201.475 159.68ZM70.4949 315.911L65.6808 313.05L59.959 322.678L64.773 325.539L70.4949 315.911ZM199.739 479.778L194.913 476.938L189.232 486.59L194.059 489.431L199.739 479.778ZM192.277 393.655L187.933 390.12L185.082 393.624L187.903 397.152L192.277 393.655ZM60.4797 315.699L56.9102 320.014L65.54 327.153L69.1095 322.839L60.4797 315.699ZM325.391 233.951L321.869 229.598L313.162 236.642L316.684 240.996L325.391 233.951ZM450.901 158.688L447.362 154.348L438.683 161.427L442.222 165.766L450.901 158.688ZM447.788 393.275L451.146 388.794L442.184 382.077L438.826 386.558L447.788 393.275ZM579.623 325.055L583.082 320.651L574.274 313.732L570.815 318.136L579.623 325.055ZM314.763 555.775L318.261 560.149L327.008 553.153L323.51 548.78L314.763 555.775ZM185.842 482.337L189.325 486.722L198.094 479.754L194.611 475.37L185.842 482.337ZM436.797 161.041L441.574 163.964L447.42 154.41L442.643 151.487L436.797 161.041ZM323.215 241.71L447.695 162.227L441.667 152.787L317.188 232.27L323.215 241.71ZM444.954 395.574L573.954 321.596L568.382 311.88L439.382 385.859L444.954 395.574ZM318.401 562.573L453.118 486.087L447.588 476.347L312.871 552.834L318.401 562.573ZM323.236 231.395L201.475 159.68L195.791 169.331L317.552 241.046L323.236 231.395ZM196.444 390.76L70.4949 315.911L64.773 325.539L190.722 400.388L196.444 390.76ZM324.073 552.951L199.739 479.778L194.059 489.431L318.392 562.604L324.073 552.951ZM316.051 232.686L187.933 390.12L196.62 397.189L324.738 239.755L316.051 232.686ZM193.103 155.383L60.4797 315.699L69.1095 322.839L201.733 162.522L193.103 155.383ZM452.124 390.598L325.391 233.951L316.684 240.996L443.417 397.643L452.124 390.598ZM583.042 320.721L450.901 158.688L442.222 165.766L574.363 327.799L583.042 320.721ZM325.521 556.406L447.788 393.275L438.826 386.558L316.559 549.689L325.521 556.406ZM453.066 486.177L579.623 325.055L570.815 318.136L444.258 479.259L453.066 486.177ZM187.903 397.152L314.763 555.775L323.51 548.78L196.65 390.157L187.903 397.152ZM56.913 320.07L185.842 482.337L194.611 475.37L65.682 313.103L56.913 320.07ZM320.973 77.4265L193.111 155.432L198.944 164.993L326.806 86.9877L320.973 77.4265ZM315.478 86.7978L436.797 161.041L442.643 151.487L321.324 77.2447L315.478 86.7978Z" fill="black"/>
</svg>
