<svg width="306" height="93" viewBox="0 0 306 93" fill="none" xmlns="http://www.w3.org/2000/svg">
<rect width="306" height="93" fill="white"/>
<path d="M54.6922 44.9804C54.6922 48.4325 54.0933 51.4491 52.8954 54.0301C51.6974 56.6002 50.0313 58.5985 47.8968 60.0251C45.7732 61.4517 43.3229 62.165 40.5459 62.165C37.7581 62.165 35.2969 61.4517 33.1624 60.0251C31.0388 58.5876 29.3781 56.5838 28.1802 54.0137C26.9822 51.4328 26.3833 48.4217 26.3833 44.9804C26.3833 41.5282 26.9822 38.5171 28.1802 35.947C29.389 33.3769 31.0552 31.3786 33.1787 29.952C35.3023 28.5145 37.7581 27.7957 40.5459 27.7957C43.3229 27.7957 45.7732 28.509 47.8968 29.9356C50.0313 31.3622 51.6974 33.366 52.8954 35.947C54.0933 38.5171 54.6922 41.5282 54.6922 44.9804ZM52.6993 44.9804C52.6993 41.8767 52.1766 39.1868 51.1312 36.9108C50.0966 34.6347 48.6645 32.876 46.835 31.6345C45.0054 30.3821 42.9091 29.7559 40.5459 29.7559C38.1828 29.7559 36.0864 30.3767 34.2569 31.6182C32.4273 32.8487 30.9898 34.6075 29.9444 36.8944C28.9098 39.1705 28.3925 41.8658 28.3925 44.9804C28.3925 48.0623 28.9044 50.7467 29.928 53.0336C30.9626 55.3097 32.3947 57.0739 34.2242 58.3262C36.0537 59.5786 38.161 60.2048 40.5459 60.2048C42.9091 60.2048 45.0054 59.5841 46.835 58.3426C48.6645 57.0902 50.0966 55.326 51.1312 53.05C52.1766 50.7739 52.6993 48.0841 52.6993 44.9804ZM57.8296 71.1167V36.6167H59.7735V42.2197H60.0185C60.4105 41.1416 60.9605 40.1506 61.6684 39.2467C62.3871 38.3428 63.2747 37.6186 64.331 37.0741C65.3982 36.5187 66.6506 36.241 68.0881 36.241C70.1137 36.241 71.8779 36.7964 73.3807 37.9072C74.8836 39.018 76.0488 40.5535 76.8765 42.5137C77.7041 44.4631 78.1179 46.701 78.1179 49.2275C78.1179 51.754 77.6987 53.9974 76.8601 55.9576C76.0325 57.907 74.8672 59.4425 73.3644 60.5642C71.8724 61.675 70.1246 62.2304 68.1208 62.2304C66.6942 62.2304 65.4418 61.9581 64.3637 61.4136C63.2964 60.8691 62.398 60.1449 61.6684 59.241C60.9496 58.3262 60.3997 57.3244 60.0185 56.2353H59.8225V71.1167H57.8296ZM59.7898 49.2112C59.7898 51.3457 60.1165 53.2569 60.7699 54.9449C61.4233 56.6219 62.3599 57.9505 63.5796 58.9307C64.7993 59.8999 66.2531 60.3845 67.9411 60.3845C69.6508 60.3845 71.1156 59.8944 72.3353 58.9143C73.5659 57.9233 74.5024 56.5838 75.1449 54.8959C75.7983 53.2079 76.125 51.313 76.125 49.2112C76.125 47.1094 75.8038 45.22 75.1613 43.5429C74.5187 41.8658 73.5876 40.5426 72.3679 39.5734C71.1482 38.5933 69.6726 38.1032 67.9411 38.1032C66.2313 38.1032 64.7666 38.5878 63.5469 39.5571C62.3381 40.5154 61.407 41.8331 60.7536 43.5102C60.1111 45.1764 59.7898 47.0767 59.7898 49.2112ZM91.5721 62.2304C89.307 62.2304 87.3358 61.6695 85.6588 60.5478C83.9817 59.4262 82.6858 57.8906 81.771 55.9413C80.8562 53.992 80.3988 51.7704 80.3988 49.2765C80.3988 46.7718 80.8562 44.5393 81.771 42.5791C82.6966 40.6189 83.9653 39.0725 85.5771 37.9399C87.1888 36.8073 89.0293 36.241 91.0984 36.241C92.5032 36.241 93.8318 36.5242 95.0842 37.0905C96.3474 37.6459 97.4582 38.4517 98.4166 39.5081C99.3858 40.5644 100.143 41.8386 100.687 43.3305C101.243 44.8225 101.52 46.4995 101.52 48.3618V49.6032H81.6566V47.79H99.5274C99.5274 45.9714 99.1571 44.3324 98.4166 42.8731C97.676 41.4138 96.6687 40.254 95.3946 39.3937C94.1204 38.5334 92.6884 38.1032 91.0984 38.1032C89.4322 38.1032 87.9457 38.5715 86.6389 39.5081C85.343 40.4337 84.3138 41.6861 83.5515 43.2652C82.8001 44.8442 82.4081 46.6084 82.3754 48.5578V49.3745C82.3754 51.4655 82.7402 53.344 83.4698 55.0102C84.2104 56.6655 85.2667 57.9778 86.6389 58.947C88.011 59.9053 89.6555 60.3845 91.5721 60.3845C92.9443 60.3845 94.115 60.1558 95.0842 59.6984C96.0643 59.2301 96.8647 58.6638 97.4855 57.9995C98.1062 57.3352 98.5745 56.6927 98.8903 56.072L100.704 56.8071C100.322 57.6456 99.7288 58.4842 98.923 59.3227C98.128 60.1503 97.1152 60.8419 95.8846 61.3973C94.6649 61.9527 93.2274 62.2304 91.5721 62.2304ZM105.161 61.7076V36.6167H107.105V40.5372H107.285C107.829 39.2521 108.749 38.223 110.045 37.4498C111.341 36.6657 112.817 36.2737 114.472 36.2737C114.646 36.2737 114.821 36.2737 114.995 36.2737C115.169 36.2737 115.332 36.2791 115.485 36.29V38.2993C115.354 38.2884 115.196 38.272 115.011 38.2503C114.837 38.2176 114.619 38.2012 114.358 38.2012C112.964 38.2012 111.722 38.5007 110.633 39.0997C109.555 39.6986 108.706 40.5263 108.085 41.5826C107.464 42.6281 107.154 43.826 107.154 45.1764V61.7076H105.161ZM124.267 62.2467C122.819 62.2467 121.49 61.9581 120.281 61.3809C119.084 60.8038 118.12 59.9598 117.39 58.849C116.671 57.7382 116.312 56.3878 116.312 54.7978C116.312 53.7524 116.497 52.8322 116.867 52.0372C117.238 51.2422 117.809 50.5561 118.583 49.9789C119.356 49.4018 120.347 48.928 121.556 48.5578C122.764 48.1766 124.207 47.8826 125.884 47.6757C127.159 47.5232 128.297 47.3762 129.298 47.2346C130.3 47.0822 131.084 46.848 131.651 46.5322C132.228 46.2164 132.517 45.7372 132.517 45.0947V44.0493C132.517 42.2197 131.939 40.7659 130.785 39.6878C129.631 38.6096 128.041 38.0706 126.015 38.0706C124.218 38.0706 122.704 38.4681 121.474 39.263C120.254 40.0471 119.399 41.0599 118.909 42.3014L117.031 41.599C117.51 40.4011 118.201 39.4046 119.105 38.6096C120.02 37.8146 121.066 37.2211 122.242 36.8291C123.429 36.437 124.67 36.241 125.966 36.241C127.088 36.241 128.155 36.3989 129.168 36.7147C130.191 37.0306 131.101 37.5097 131.896 38.1522C132.702 38.7948 133.339 39.617 133.807 40.6189C134.275 41.6099 134.509 42.7969 134.509 44.1799V61.7076H132.517V57.1828H132.37C131.934 58.1193 131.335 58.9742 130.573 59.7474C129.821 60.5097 128.912 61.1196 127.845 61.577C126.788 62.0235 125.596 62.2467 124.267 62.2467ZM124.463 60.4008C126.031 60.4008 127.42 60.0197 128.629 59.2574C129.848 58.4842 130.801 57.4278 131.487 56.0883C132.173 54.7488 132.517 53.2297 132.517 51.5308V47.839C132.266 48.0568 131.901 48.2529 131.422 48.4271C130.954 48.5905 130.42 48.7375 129.821 48.8682C129.233 48.9879 128.612 49.0968 127.959 49.1949C127.316 49.282 126.69 49.3637 126.08 49.4399C124.251 49.6577 122.759 49.9953 121.605 50.4527C120.461 50.8992 119.623 51.4872 119.089 52.2169C118.566 52.9465 118.305 53.8286 118.305 54.8632C118.305 56.5729 118.893 57.9233 120.069 58.9143C121.245 59.9053 122.71 60.4008 124.463 60.4008ZM140.258 45.4378V61.7076H138.265V36.6167H140.209V40.5862H140.405C140.993 39.2903 141.935 38.2503 143.231 37.4662C144.527 36.6821 146.068 36.29 147.854 36.29C149.542 36.29 151.023 36.6494 152.297 37.3682C153.582 38.0869 154.584 39.1106 155.303 40.4392C156.032 41.7569 156.397 43.3305 156.397 45.1601V61.7076H154.404V45.2417C154.404 43.1073 153.767 41.3921 152.493 40.0961C151.23 38.7893 149.558 38.1359 147.478 38.1359C146.084 38.1359 144.843 38.4408 143.754 39.0507C142.665 39.6605 141.81 40.5154 141.189 41.6153C140.568 42.7043 140.258 43.9785 140.258 45.4378ZM169.608 62.2304C167.593 62.2304 165.834 61.675 164.331 60.5642C162.829 59.4534 161.663 57.9233 160.836 55.974C160.019 54.0137 159.61 51.7649 159.61 49.2275C159.61 46.7119 160.024 44.4794 160.852 42.5301C161.69 40.5699 162.861 39.0343 164.364 37.9235C165.867 36.8019 167.62 36.241 169.624 36.241C171.061 36.241 172.308 36.5187 173.365 37.0741C174.432 37.6186 175.325 38.3428 176.044 39.2467C176.773 40.1506 177.329 41.1416 177.71 42.2197H177.906V28.2531H179.882V61.7076H177.955V56.2353H177.71C177.307 57.3135 176.746 58.3099 176.027 59.2247C175.309 60.1286 174.416 60.8582 173.348 61.4136C172.281 61.9581 171.034 62.2304 169.608 62.2304ZM169.787 60.3845C171.486 60.3845 172.94 59.8999 174.149 58.9307C175.369 57.9505 176.3 56.6219 176.942 54.9449C177.596 53.2569 177.922 51.3457 177.922 49.2112C177.922 47.0767 177.596 45.1764 176.942 43.5102C176.3 41.8331 175.369 40.5154 174.149 39.5571C172.94 38.5878 171.486 38.1032 169.787 38.1032C168.067 38.1032 166.591 38.5933 165.36 39.5734C164.141 40.5426 163.204 41.8658 162.551 43.5429C161.908 45.22 161.587 47.1094 161.587 49.2112C161.587 51.313 161.908 53.2079 162.551 54.8959C163.204 56.5838 164.141 57.9233 165.36 58.9143C166.591 59.8944 168.067 60.3845 169.787 60.3845Z" fill="#2D2D2D"/>
<line x1="200.778" y1="21.0215" x2="200.778" y2="71.3789" stroke="#2D2D2D" stroke-width="1.5"/>
<path d="M243.598 21.2488L244.067 20.8755L243.598 20.2843L243.128 20.8756L243.598 21.2488ZM229.886 38.5138L230.188 39.032L230.285 38.9752L230.355 38.887L229.886 38.5138ZM257.32 38.5138L256.85 38.8872L256.921 38.9757L257.018 39.0325L257.32 38.5138ZM257.854 38.8869L258.228 38.4171L257.288 37.6708L256.915 38.1406L257.854 38.8869ZM256.726 63.9551L257.247 64.2536L257.844 63.2126L257.323 62.9141L256.726 63.9551ZM230.42 38.1404L230.047 37.6707L229.107 38.4174L229.48 38.8871L230.42 38.1404ZM229.872 63.0256L229.351 63.3248L229.95 64.3649L230.47 64.0658L229.872 63.0256ZM243.128 20.8756L229.416 38.1407L230.355 38.887L244.068 21.6219L243.128 20.8756ZM216.561 46.989L230.188 39.032L229.583 37.9957L215.956 45.9528L216.561 46.989ZM243.128 21.6221L256.85 38.8872L257.79 38.1405L244.067 20.8755L243.128 21.6221ZM271.302 45.9523L257.622 37.9952L257.018 39.0325L270.698 46.9896L271.302 45.9523ZM244.142 56.152L257.854 38.8869L256.915 38.1406L243.203 55.4056L244.142 56.152ZM243.374 56.2993L256.726 63.9551L257.323 62.9141L243.971 55.2583L243.374 56.2993ZM244.142 55.4055L230.42 38.1404L229.48 38.8871L243.203 56.1521L244.142 55.4055ZM243.373 55.2587L229.872 63.0256L230.47 64.0658L243.972 56.2989L243.373 55.2587Z" fill="#C6C6C6"/>
<path d="M243.598 37.3908L244.063 37.7695L244.504 37.2281L243.902 36.8738L243.598 37.3908ZM230.777 29.1432L230.26 28.8387L229.651 29.8727L230.168 30.1772L230.777 29.1432ZM216.658 45.9842L216.142 45.6777L215.529 46.7093L216.045 47.0158L216.658 45.9842ZM230.77 63.8044L230.249 63.5067L229.654 64.5485L230.175 64.8462L230.77 63.8044ZM229.787 54.3615L229.322 53.9828L229.016 54.3582L229.319 54.7363L229.787 54.3615ZM215.654 46.0047L215.273 46.4685L216.2 47.2299L216.581 46.7662L215.654 46.0047ZM244.124 37.0585L243.748 36.5912L242.813 37.3439L243.19 37.8112L244.124 37.0585ZM257.794 29.1158L257.416 28.65L256.485 29.4063L256.863 29.8721L257.794 29.1158ZM257.327 54.3185L257.687 53.8383L256.727 53.1186L256.367 53.5988L257.327 54.3185ZM271.435 46.9243L271.807 46.4535L270.865 45.7096L270.493 46.1804L271.435 46.9243ZM242.994 71.8352L243.368 72.3038L244.306 71.5543L243.931 71.0858L242.994 71.8352ZM229.096 63.9189L229.47 64.3887L230.409 63.6422L230.036 63.1724L229.096 63.9189ZM256.108 29.2267L256.624 29.5327L257.236 28.5005L256.72 28.1945L256.108 29.2267ZM243.902 37.9825L257.32 29.4146L256.675 28.4032L243.256 36.9711L243.902 37.9825ZM257.267 54.6557L270.931 46.5939L270.321 45.5603L256.658 53.6222L257.267 54.6557ZM243.383 72.5703L257.905 64.3254L257.312 63.2819L242.79 71.5268L243.383 72.5703ZM243.902 36.8738L230.777 29.1432L230.168 30.1772L243.293 37.9078L243.902 36.8738ZM230.235 54.0527L216.658 45.9842L216.045 47.0158L229.622 55.0843L230.235 54.0527ZM244.059 71.3994L230.77 63.8044L230.175 64.8462L243.463 72.4413L244.059 71.3994ZM243.132 37.0121L229.322 53.9828L230.253 54.7402L244.063 37.7695L243.132 37.0121ZM229.878 28.6809L215.654 46.0047L216.581 46.7662L230.805 29.4424L229.878 28.6809ZM257.796 54.0355L244.124 37.0585L243.19 37.8112L256.861 54.7881L257.796 54.0355ZM271.908 46.5029L257.794 29.1158L256.863 29.8721L270.977 47.2592L271.908 46.5029ZM244.148 71.9033L257.327 54.3185L256.367 53.5988L243.187 71.1836L244.148 71.9033ZM257.738 64.2602L271.435 46.9243L270.493 46.1804L256.797 63.5163L257.738 64.2602ZM229.319 54.7363L242.994 71.8352L243.931 71.0858L230.256 53.9868L229.319 54.7363ZM215.198 46.4271L229.096 63.9189L230.036 63.1724L216.138 45.6806L215.198 46.4271ZM243.66 20.2734L229.746 28.5975L230.362 29.6273L244.276 21.3032L243.66 20.2734ZM242.967 21.4359L256.108 29.2267L256.72 28.1945L243.579 20.4037L242.967 21.4359Z" fill="black"/>
</svg>
